<svg xmlns="http://www.w3.org/2000/svg" viewBox="0 0 550 320" width="550" height="320"><rect width="100%" height="100%" fill="#ffffff"/><path d="M 75 37 L 75 38 L 74 39 L 71 40 L 68 42 L 64 47 L 60 50 L 57 55 L 51 59 L 48 63 L 43 70 L 39 76 L 36 80 L 33 86 L 29 91 L 27 96 L 25 101 L 23 106 L 20 110 L 19 113 L 18 116 L 17 119 L 16 122 L 16 125 L 16 126 L 16 128 L 16 129 L 17 129 L 17 130 L 18 130 L 19 130 L 20 130 L 21 130 L 23 130 L 24 130 L 29 130 L 35 128 L 44 126 L 51 125 L 63 121 L 76 119 L 87 118 L 98 116 L 107 116 L 116 116 L 123 116 L 129 116 L 134 116 L 138 116 L 141 116 L 145 117 L 147 118 L 150 119 L 155 121 L 158 123 L 161 127 L 165 129 L 167 131 L 168 133 L 170 137 L 171 138 L 171 141 L 173 143 L 174 146 L 174 148 L 174 150 L 175 153 L 175 157 L 175 160 L 175 163 L 175 167 L 176 171 L 176 176 L 176 179 L 177 185 L 178 189 L 178 193 L 179 197 L 179 199 L 179 201 L 180 202 L 180 201 L 179 200" stroke="#000000" stroke-width="3" stroke-linecap="round" stroke-linejoin="round" fill="none" /><path d="M 244 89 L 245 89 L 245 90 L 246 91 L 247 93 L 247 95 L 247 97 L 248 99 L 249 100 L 249 102 L 250 105 L 251 107 L 251 111 L 253 115 L 253 118 L 253 121 L 254 126 L 254 130 L 254 135 L 255 140 L 256 147 L 256 152 L 256 158 L 257 163 L 259 168 L 260 172 L 263 177 L 264 180 L 265 181 L 266 182 L 266 183 L 267 183 L 267 182 L 267 181 L 267 180 L 268 178 L 269 177 L 270 175 L 271 173 L 274 171 L 275 170" stroke="#000000" stroke-width="3" stroke-linecap="round" stroke-linejoin="round" fill="none" /><path d="M 426 107 L 428 107 L 428 108 L 429 108 L 429 109 L 430 109 L 430 110 L 431 111 L 431 112 L 431 113 L 431 115 L 431 117 L 431 119 L 431 120 L 430 123 L 429 126 L 427 129 L 425 132 L 421 135 L 418 138 L 411 140 L 405 142 L 399 143 L 393 145 L 381 145 L 374 145 L 364 143 L 356 140 L 348 138 L 343 135 L 337 131 L 330 126 L 327 121 L 324 117 L 321 112 L 319 108 L 318 101 L 318 97 L 316 89 L 316 83 L 316 79 L 316 73 L 316 70 L 316 67 L 316 63 L 316 62 L 316 60 L 316 59 L 316 58 L 316 57 L 316 56 L 315 56 L 315 55 L 314 55 L 314 53 L 314 52 L 314 51 L 314 50 L 313 49 L 313 48" stroke="#000000" stroke-width="3" stroke-linecap="round" stroke-linejoin="round" fill="none" /><path d="M 87 56 L 88 56 L 88 57 L 91 57 L 93 57 L 97 57 L 101 57 L 107 57 L 114 57 L 120 57 L 131 57 L 143 57 L 155 57 L 165 57 L 177 57 L 193 57 L 205 57 L 217 57 L 231 57 L 246 57 L 263 57 L 280 57 L 305 57 L 325 57 L 347 57 L 369 57 L 390 57 L 413 57 L 435 57 L 451 57 L 463 57 L 473 57 L 481 57 L 486 57 L 488 57 L 488 58" stroke="#000000" stroke-width="19" stroke-linecap="round" stroke-linejoin="round" fill="none" /><path d="M 348 159 L 348 160 L 348 161 L 347 162 L 345 166 L 343 170 L 340 175 L 338 178 L 335 182 L 331 187 L 326 192 L 320 199 L 316 205 L 310 210 L 306 215 L 300 219 L 297 223 L 293 228 L 289 230 L 285 232 L 283 235 L 280 236 L 279 236 L 278 236 L 278 237 L 277 237 L 276 237 L 275 237 L 274 237" stroke="#000000" stroke-width="19" stroke-linecap="round" stroke-linejoin="round" fill="none" /></svg>